<?xml version="1.0" encoding="utf-8"?>
<!-- Generator: Adobe Illustrator 27.0.0, SVG Export Plug-In . SVG Version: 6.00 Build 0)  -->
<svg version="1.1" id="Layer_1" xmlns="http://www.w3.org/2000/svg" xmlns:xlink="http://www.w3.org/1999/xlink" x="0px" y="0px"
	 viewBox="0 0 400 400" style="enable-background:new 0 0 400 400;" xml:space="preserve">
<path d="M329.5,89H240V68.8c0.1-5.3-4.2-9.7-9.5-9.8c-0.1,0-0.2,0-0.3,0H169c-5.4-0.1-9.9,4.2-10,9.7v0.1V89H69.7
	c-5.5,0-10,4.5-10,10s4.5,10,10,10h60.6C106.1,130,91,159.8,91,192.7V260H72.8c-5.4,0-9.8,4.4-9.8,9.8v0.2v61.2
	c-0.1,5.3,4.2,9.7,9.5,9.8h0.3H134c5.4,0.1,9.9-4.3,10-9.7v-0.1V270c0-5.5-4.5-10-10-10h-23v-67.3c0.1-33.1,18.6-63.3,48-78.5V130
	c0,5.5,4.4,10,9.9,10h61.3c5.4,0,9.8-4.4,9.8-9.8c0-0.1,0-0.1,0-0.2v-15.8c29.4,15.1,48,45.4,48,78.5V260h-22.8
	c-5.6,0-10.1,4.4-10.2,10v61.2c0.1,5.5,4.7,9.9,10.2,9.8h61.2c5.2,0.1,9.5-4.1,9.6-9.4c0-0.1,0-0.3,0-0.4V270c0.2-5.3-4-9.8-9.3-10
	c-0.1,0-0.2,0-0.3,0H308v-67.3c0-33-14.8-62.7-39-83.7h60.5c5.5,0,10-4.5,10-10S335,89,329.5,89z M124,321H83v-41h41V321z M316,321
	h-41v-41h41V321z M179,120V79h41v16.6v6.9V120H179z"/>
<g>
	<path d="M39.1,139.3C17.6,139.3,0,121.4,0,99.4s17.5-39.9,39.1-39.9c21.6,0,39.1,17.9,39.1,39.9S60.6,139.3,39.1,139.3z M39.1,79.5
		C28.6,79.5,20,88.4,20,99.4s8.6,19.9,19.1,19.9s19.1-8.9,19.1-19.9S49.6,79.5,39.1,79.5z"/>
	<path d="M360.1,138.5c-22,0-39.9-17.5-39.9-39.1c0-21.6,17.9-39.1,39.9-39.1S400,77.8,400,99.4C400,121,382.1,138.5,360.1,138.5z
		 M360.1,80.3c-11,0-19.9,8.6-19.9,19.1s8.9,19.1,19.9,19.1s19.9-8.6,19.9-19.1S371.1,80.3,360.1,80.3z"/>
</g>
</svg>
