<?xml version="1.0" encoding="utf-8"?>
<!-- Generator: Adobe Illustrator 27.0.0, SVG Export Plug-In . SVG Version: 6.00 Build 0)  -->
<svg version="1.1" id="Layer_1" xmlns="http://www.w3.org/2000/svg" xmlns:xlink="http://www.w3.org/1999/xlink" x="0px" y="0px"
	 viewBox="0 0 480 480" style="enable-background:new 0 0 480 480;" xml:space="preserve">
<style type="text/css">
	.st0{fill:none;}
	.st1{fill:#B489CE;}
</style>
<path class="st0" d="M60,432V108c0-22.1,17.9-40,40-40h368.7c-4.5-17.7-20.5-30-38.7-30H50c-22.1,0-40,17.9-40,40v324
	c0,22.1,17.9,40,40,40h11.3C60.4,438.7,60,435.4,60,432z"/>
<path d="M402.9,43H68.1C43.7,43,24,64.1,24,90.1v304.9c0,26,19.7,47,44.1,47.1h334.9c24.3,0,44.1-21.1,44.1-47.1V90.1
	C447,64.1,427.3,43,402.9,43z M68.1,61.8h334.9c14.6,0,26.4,12.7,26.4,28.2v39.2H41.6V90.1C41.7,74.5,53.5,61.9,68.1,61.8z
	 M402.9,423.2H68.1c-14.6,0-26.4-12.7-26.4-28.2V148.1h387.8v246.8C429.3,410.5,417.5,423.1,402.9,423.2z"/>
<path d="M381.3,307.5H269.8c-4.9,0-8.8,4.2-8.8,9.4c0,5.2,3.9,9.4,8.8,9.4h111.5c4.9,0,8.8-4.2,8.8-9.4
	C390.1,311.7,386.1,307.5,381.3,307.5z"/>
<path d="M381.3,362.3H269.8c-4.9,0-8.8,4.2-8.8,9.4c0,5.2,3.9,9.4,8.8,9.4h111.5c4.9,0,8.8-4.2,8.8-9.4
	C390.1,366.5,386.1,362.3,381.3,362.3z"/>
<path d="M381.3,198H269.8c-4.9,0-8.8,4.2-8.8,9.4s3.9,9.4,8.8,9.4h111.5c4.9,0,8.8-4.2,8.8-9.4S386.1,198,381.3,198z"/>
<path d="M381.3,252.8H269.8c-4.9,0-8.8,4.2-8.8,9.4c0,5.2,3.9,9.4,8.8,9.4h111.5c4.9,0,8.8-4.2,8.8-9.4
	C390.1,257,386.1,252.8,381.3,252.8z"/>
<path class="st1" d="M143.4,286c28.5,0,51.7-23.1,51.7-51.6c0-28.5-23.1-51.7-51.6-51.7s-51.7,23.1-51.7,51.6
	C91.8,262.8,114.9,285.9,143.4,286z M143.4,202.7c12.8,0,24.4,7.7,29.3,19.5c4.9,11.8,2.2,25.5-6.9,34.5
	c-9.1,9.1-22.7,11.8-34.5,6.9c-11.8-4.9-19.5-16.5-19.5-29.3C111.8,216.9,126,202.8,143.4,202.7z"/>
<path class="st1" d="M143.4,305.1c-21.1-0.1-41.4,8.3-56.2,23.5c-15,15.3-23.2,36.1-23.2,58.7c0,5.5,4.5,10,10,10h138.9
	c5.5,0,10-4.5,10-10c0-22.6-8.2-43.4-23.2-58.7C184.9,313.4,164.6,305,143.4,305.1z M84.7,377.3c1.7-13.1,7.6-25.2,16.8-34.7
	c11.1-11.2,26.2-17.5,41.9-17.5c15.7,0,30.8,6.3,41.9,17.5c9.2,9.5,15.1,21.6,16.8,34.7H84.7z"/>
</svg>
