<?xml version="1.0" encoding="utf-8"?>
<!-- Generator: Adobe Illustrator 27.0.0, SVG Export Plug-In . SVG Version: 6.00 Build 0)  -->
<svg version="1.1" id="Layer_1" xmlns="http://www.w3.org/2000/svg" xmlns:xlink="http://www.w3.org/1999/xlink" x="0px" y="0px"
	 viewBox="0 0 500 500" style="enable-background:new 0 0 500 500;" xml:space="preserve">
<style type="text/css">
	.st0{fill:#FFFFFF;}
</style>
<rect x="-50" y="-50" class="st0" width="600" height="600"/>
<rect x="-50" y="-50" class="st0" width="600" height="600"/>
<rect x="-50" y="-50" class="st0" width="600" height="600"/>
<g>
	<g transform="translate(115.10156, 196.499987)">
		<g>
			<path d="M41.5,65.5v-23h13.9L55,44.9l-6.4-1.1c-1.1,0-2.4,0.2-3.8,0.6v8.4h7.7v1.3h-7.7v10.1l10.8-1.1l-0.4,2.3H41.5z"/>
		</g>
	</g>
</g>
<g>
	<g transform="translate(129.709187, 196.499987)">
		<g>
			<path d="M55.5,53.2l9,12.3h-4.3l-6.5-10.1l-7.4,10.1h-2.1l8.7-11.1l-8.2-11.8H49l5.8,9.5l7.2-9.5h2.1L55.5,53.2z"/>
		</g>
	</g>
</g>
<g>
	<g transform="translate(146.500152, 196.499987)">
		<g>
			<path d="M49.2,65.5L59.5,42H60l10.3,23.5h-3.8l-2.6-6.2H53.6L51,65.5H49.2z M54.1,57.9h9.2l-4.6-11.2L54.1,57.9z"/>
		</g>
	</g>
</g>
<g>
	<g transform="translate(162.84925, 196.499987)">
		<g>
			<path d="M69.6,60.1l7.7-17.5h3.5l1.3,23h-3.5l-0.9-19.7h-0.1l-8.7,19.7h-0.5l-8.6-18.9h-0.1l-0.9,18.9h-1.5l1.3-23h3.2L69.6,60.1
				z"/>
		</g>
	</g>
</g>
<g>
	<g transform="translate(185.956323, 196.499987)">
		<g>
			<path d="M80.5,48.5c0,2.2-0.8,3.9-2.4,5c-1.6,1.1-3.8,1.7-6.6,1.7h-3v10.2h-3.4v-23h7.5c2.3,0,4.2,0.5,5.7,1.6
				C79.8,45.2,80.5,46.7,80.5,48.5z M68.5,54.3h3.1c1.1,0,2-0.2,2.8-0.6c0.8-0.4,1.3-0.9,1.7-1.6c0.6-1.2,0.9-2.3,0.9-3.4
				c0-0.5-0.1-1.2-0.4-1.9c-0.6-1.5-1.7-2.5-3.4-3c-1.7,0-3.2,0.2-4.6,0.6V54.3z"/>
		</g>
	</g>
</g>
<g>
	<g transform="translate(200.148072, 196.499987)">
		<g>
			<path d="M69.8,65.5v-23h3.4v21.1c1.4,0.4,2.5,0.6,3.4,0.6l6.3-1.1l-0.4,2.3H69.8z"/>
		</g>
	</g>
</g>
<g>
	<g transform="translate(212.806278, 196.499987)">
		<g>
			<path d="M74.1,65.5v-23H88l-0.4,2.3l-6.4-1.1c-1.1,0-2.4,0.2-3.8,0.6v8.4h7.7v1.3h-7.7v10.1l10.8-1.1l-0.4,2.3H74.1z"/>
		</g>
	</g>
</g>
<g>
	<g transform="translate(227.413905, 196.499987)">
	</g>
</g>
</svg>
